<svg width="35" height="35" viewBox="0 0 35 35" fill="none" xmlns="http://www.w3.org/2000/svg">
<g opacity="0.7">
<rect x="0.25" y="0.25" width="34" height="34" rx="17" stroke="white" stroke-width="0.5"/>
<path d="M18.8084 10.7866C17.9395 10.7866 17.1062 11.1318 16.4918 11.7462C15.8775 12.3605 15.5323 13.1938 15.5323 14.0627V15.8866H13.7792C13.6914 15.8866 13.6198 15.9575 13.6198 16.046V18.4543C13.6198 18.5422 13.6906 18.6137 13.7792 18.6137H15.5323V23.5543C15.5323 23.6422 15.6031 23.7137 15.6917 23.7137H18.1C18.1879 23.7137 18.2594 23.6429 18.2594 23.5543V18.6137H20.0281C20.1011 18.6137 20.1648 18.5641 20.1825 18.4933L20.7846 16.085C20.7905 16.0615 20.791 16.0369 20.786 16.0132C20.781 15.9895 20.7707 15.9672 20.7558 15.9481C20.7409 15.929 20.7219 15.9135 20.7001 15.9028C20.6783 15.8922 20.6544 15.8866 20.6302 15.8866H18.2594V14.0627C18.2594 13.9906 18.2736 13.9192 18.3012 13.8526C18.3288 13.786 18.3692 13.7255 18.4202 13.6745C18.4712 13.6235 18.5317 13.5831 18.5983 13.5555C18.6649 13.5279 18.7363 13.5137 18.8084 13.5137H20.65C20.7379 13.5137 20.8094 13.4429 20.8094 13.3543V10.946C20.8094 10.8582 20.7386 10.7866 20.65 10.7866H18.8084Z" fill="white"/>
</g>
</svg>
