<svg width="35" height="35" viewBox="0 0 35 35" fill="none" xmlns="http://www.w3.org/2000/svg">
<g opacity="0.7">
<rect x="0.25" y="0.25" width="34" height="34" rx="17" stroke="white" stroke-width="0.5"/>
<path d="M17.25 14.9478C16.6395 14.9478 16.0539 15.1903 15.6222 15.622C15.1905 16.0537 14.9479 16.6393 14.9479 17.2498C14.9479 17.8604 15.1905 18.4459 15.6222 18.8777C16.0539 19.3094 16.6395 19.5519 17.25 19.5519C17.8606 19.5519 18.4461 19.3094 18.8778 18.8777C19.3096 18.4459 19.5521 17.8604 19.5521 17.2498C19.5521 16.6393 19.3096 16.0537 18.8778 15.622C18.4461 15.1903 17.8606 14.9478 17.25 14.9478Z" fill="white"/>
<path fill-rule="evenodd" clip-rule="evenodd" d="M13.5454 10.9332C16.0076 10.6603 18.4924 10.6603 20.9546 10.9332C22.2997 11.0834 23.3841 12.1423 23.5421 13.4924C23.8341 15.989 23.8341 18.5112 23.5421 21.0078C23.3841 22.3579 22.2997 23.4169 20.9553 23.5677C18.4929 23.8407 16.0078 23.8407 13.5454 23.5677C12.2003 23.4169 11.1158 22.3579 10.9579 21.0085C10.6658 18.5117 10.6658 15.9893 10.9579 13.4924C11.1158 12.1423 12.2003 11.0834 13.5454 10.9332ZM20.7916 13.0001C20.6038 13.0001 20.4236 13.0748 20.2908 13.2076C20.1579 13.3404 20.0833 13.5206 20.0833 13.7085C20.0833 13.8963 20.1579 14.0765 20.2908 14.2093C20.4236 14.3422 20.6038 14.4168 20.7916 14.4168C20.9795 14.4168 21.1597 14.3422 21.2925 14.2093C21.4253 14.0765 21.5 13.8963 21.5 13.7085C21.5 13.5206 21.4253 13.3404 21.2925 13.2076C21.1597 13.0748 20.9795 13.0001 20.7916 13.0001ZM13.8854 17.2501C13.8854 16.3578 14.2399 15.502 14.8709 14.871C15.5018 14.24 16.3576 13.8855 17.25 13.8855C18.1423 13.8855 18.9981 14.24 19.6291 14.871C20.2601 15.502 20.6146 16.3578 20.6146 17.2501C20.6146 18.1425 20.2601 18.9983 19.6291 19.6292C18.9981 20.2602 18.1423 20.6147 17.25 20.6147C16.3576 20.6147 15.5018 20.2602 14.8709 19.6292C14.2399 18.9983 13.8854 18.1425 13.8854 17.2501Z" fill="white"/>
</g>
</svg>
