<svg width="35" height="35" viewBox="0 0 35 35" fill="none" xmlns="http://www.w3.org/2000/svg">
<g opacity="0.7">
<rect x="0.25" y="0.25" width="34" height="34" rx="17" stroke="white" stroke-width="0.5"/>
<path d="M13.6659 12.2919C13.6657 12.6676 13.5162 13.0279 13.2504 13.2934C12.9846 13.559 12.6242 13.708 12.2485 13.7078C11.8728 13.7077 11.5125 13.5582 11.247 13.2924C10.9814 13.0266 10.8323 12.6662 10.8325 12.2905C10.8327 11.9147 10.9821 11.5545 11.248 11.2889C11.5138 11.0234 11.8742 10.8743 12.2499 10.8745C12.6256 10.8747 12.9859 11.0241 13.2514 11.2899C13.517 11.5558 13.666 11.9162 13.6659 12.2919ZM13.7084 14.7569H10.875V23.6252H13.7084V14.7569ZM18.185 14.7569H15.3659V23.6252H18.1567V18.9715C18.1567 16.379 21.5354 16.1381 21.5354 18.9715V23.6252H24.3334V18.0081C24.3334 13.6377 19.3325 13.8006 18.1567 15.9469L18.185 14.7569Z" fill="white"/>
</g>
</svg>
